<svg version="1.1" viewBox="0.0 0.0 149.0 25.0" fill="none" stroke="none" stroke-linecap="square" stroke-miterlimit="10" xmlns:xlink="http://www.w3.org/1999/xlink" xmlns="http://www.w3.org/2000/svg"><clipPath id="p.0"><path d="m0 0l149.0 0l0 25.0l-149.0 0l0 -25.0z" clip-rule="nonzero"/></clipPath><g clip-path="url(#p.0)"><path fill="#000000" fill-opacity="0.0" d="m0 0l149.0 0l0 25.0l-149.0 0z" fill-rule="evenodd"/><path fill="#000000" fill-opacity="0.0" d="m-0.005212861 -12.539371l149.00787 0l0 50.078743l-149.00787 0z" fill-rule="evenodd"/><path fill="#d9d9d9" d="m59.774952 17.671255q0 0.65625 0.03125 1.0q0.046875 0.34375 0.140625 0.5625q0.09375 0.203125 0.234375 0.328125q0.15625 0.125 0.40625 0.234375q0.25 0.109375 0.6875 0.171875l0 0.8125l-6.65625 0l0 -0.8125q0.453125 -0.109375 0.71875 -0.25q0.265625 -0.15625 0.390625 -0.40625q0.140625 -0.265625 0.171875 -0.65625q0.046875 -0.390625 0.046875 -0.984375l0 -10.65625q0 -0.578125 -0.03125 -0.96875q-0.03125 -0.40625 -0.171875 -0.640625q-0.125 -0.25 -0.390625 -0.40625q-0.265625 -0.15625 -0.734375 -0.28125l0 -0.8125l11.953129 0l0 3.921875l-1.6875 0q-0.40625 -1.171875 -0.703125 -1.578125q-0.2812538 -0.421875 -0.6718788 -0.65625q-0.390625 -0.25 -1.34375 -0.25l-2.390625 0l0 6.2968745l1.578125 0q0.59375 0 0.90625 -0.171875q0.3125 -0.1875 0.515625 -0.609375q0.203125 -0.421875 0.34375 -1.1875l1.3906288 0l0 5.390625l-1.3906288 0q-0.15625 -0.78125 -0.375 -1.203125q-0.203125 -0.421875 -0.515625 -0.59375q-0.296875 -0.171875 -0.875 -0.171875l-1.578125 0l0 4.578126zm20.592838 -13.390625l0 3.59375l-1.6875 0q-0.296875 -1.40625 -0.9375 -2.0625q-0.640625 -0.65625 -1.671875 -0.65625q-1.96875 0 -2.96875 1.875q-1.0 1.8593745 -1.0 5.5468745q0 3.421875 0.90625 5.187501q0.921875 1.765625 2.703125 1.765625q0.890625 0 1.453125 -0.296875q0.578125 -0.3125 0.921875 -0.90625q0.34375 -0.609375 0.59375 -1.71875l1.6875 0l0 3.75q-1.359375 0.328125 -2.484375 0.46875q-1.125 0.15625 -2.34375 0.15625q-2.5625 0 -4.203125 -0.921875q-1.625 -0.9375 -2.390625 -2.8125q-0.765625 -1.875001 -0.765625 -4.750001q0 -2.671875 0.90625 -4.6562495q0.90625 -1.984375 2.671875 -3.0625q1.765625 -1.078125 4.234375 -1.078125q1.25 0 2.265625 0.140625q1.015625 0.125 2.109375 0.4375zm14.148056 0l0 3.59375l-1.6875 0q-0.296875 -1.40625 -0.9375 -2.0625q-0.640625 -0.65625 -1.671875 -0.65625q-1.96875 0 -2.96875 1.875q-1.0 1.8593745 -1.0 5.5468745q0 3.421875 0.90625 5.187501q0.921875 1.765625 2.703125 1.765625q0.890625 0 1.453125 -0.296875q0.578125 -0.3125 0.921875 -0.90625q0.34375 -0.609375 0.59375 -1.71875l1.6875 0l0 3.75q-1.359375 0.328125 -2.484375 0.46875q-1.125 0.15625 -2.34375 0.15625q-2.5625 0 -4.203125 -0.921875q-1.625 -0.9375 -2.390625 -2.8125q-0.765625 -1.875001 -0.765625 -4.750001q0 -2.671875 0.90625 -4.6562495q0.90625 -1.984375 2.671875 -3.0625q1.765625 -1.078125 4.234375 -1.078125q1.25 0 2.265625 0.140625q1.015625 0.125 2.109375 0.4375z" fill-rule="nonzero"/></g></svg>